<svg xmlns="http://www.w3.org/2000/svg" xmlns:xlink="http://www.w3.org/1999/xlink" width="35" height="35" viewBox="0 0 35 35"><defs><clipPath id="a"><rect width="35" height="35" transform="translate(-0.001 -0.107)" fill="#fff"/></clipPath></defs><g transform="translate(0.001 0.107)" clip-path="url(#a)"><g transform="translate(5.201 9.814)"><path d="M24.639,3.746a.754.754,0,0,0-.557-.246h-.517a1.145,1.145,0,0,0-.285.037V1.53A1.532,1.532,0,0,0,21.749,0H13.584a1.527,1.527,0,0,0-1.166.541A1.527,1.527,0,0,0,11.251,0H3.086a1.532,1.532,0,0,0-1.53,1.53V3.536A1.144,1.144,0,0,0,1.27,3.5H.753A.753.753,0,0,0,0,4.323l.67,7.036A1.137,1.137,0,0,0,1.81,12.392h.079L1.559,14.7a.364.364,0,0,0,.36.415H2.7a.364.364,0,0,0,.334-.221l1.072-2.5h.538a.364.364,0,0,0,0-.728H1.81A.412.412,0,0,1,1.4,11.29L.728,4.254a.024.024,0,0,1,.006-.019.024.024,0,0,1,.019-.008H1.27a.414.414,0,0,1,.407.34l.656,3.606v.356A1.143,1.143,0,0,0,3.475,9.67H11.64a1.137,1.137,0,0,0,.778-.307,1.137,1.137,0,0,0,.778.307H21.36A1.143,1.143,0,0,0,22.5,8.529V8.173l.656-3.606a.414.414,0,0,1,.407-.34h.517a.024.024,0,0,1,.019.008.024.024,0,0,1,.006.019l-.67,7.036a.412.412,0,0,1-.412.375H6.2a.364.364,0,0,0,0,.728H20.732l1.072,2.5a.364.364,0,0,0,.334.221h.778a.364.364,0,0,0,.36-.415l-.329-2.307h.079a1.137,1.137,0,0,0,1.136-1.033l.67-7.036a.754.754,0,0,0-.192-.578ZM2.457,14.386H2.339l.285-1.994h.688ZM3.086.728h8.165a.8.8,0,0,1,.8.8V5.807a.414.414,0,0,1-.414.414H3.475a1.136,1.136,0,0,0-.711.25l-.37-2.034a1.142,1.142,0,0,0-.11-.321V1.53a.8.8,0,0,1,.8-.8ZM11.64,8.943H3.475a.414.414,0,0,1-.414-.414V7.363a.414.414,0,0,1,.414-.414H11.64a.414.414,0,0,1,.414.414V8.529A.414.414,0,0,1,11.64,8.943Zm10.135-.414a.414.414,0,0,1-.414.414H13.2a.414.414,0,0,1-.414-.414V7.362a.414.414,0,0,1,.414-.414h6.221a.364.364,0,0,0,0-.728H13.2a.414.414,0,0,1-.414-.414V1.53a.8.8,0,0,1,.8-.8h8.165a.8.8,0,0,1,.8.8V4.116a1.136,1.136,0,0,0-.11.321l-.37,2.034a1.136,1.136,0,0,0-.711-.25h-.389a.364.364,0,0,0,0,.728h.389a.414.414,0,0,1,.414.414V8.529Zm.722,5.857h-.118l-.855-1.994h.688Zm0,0" transform="translate(0 0)"/><path d="M104.616,56.841a.364.364,0,1,0,0-.728h0a.364.364,0,0,0,0,.728Zm0,0" transform="translate(-99.193 -53.392)"/><path d="M393.116,56.113h0a.364.364,0,1,0,.368.364A.362.362,0,0,0,393.112,56.113Zm0,0" transform="translate(-373.7 -53.392)"/><path d="M176.761,56.841a.364.364,0,0,0,0-.728h0a.364.364,0,0,0,0,.728Zm0,0" transform="translate(-167.839 -53.392)"/><path d="M321.05,56.113h0a.364.364,0,1,0,.368.364A.362.362,0,0,0,321.046,56.113Zm0,0" transform="translate(-305.129 -53.392)"/></g></g></svg>