<svg xmlns="http://www.w3.org/2000/svg" xmlns:xlink="http://www.w3.org/1999/xlink" width="35" height="35" viewBox="0 0 35 35"><defs><clipPath id="a"><rect width="35" height="35" transform="translate(-0.001 -0.482)" fill="#fff"/></clipPath></defs><g transform="translate(0.001 0.482)" clip-path="url(#a)"><g transform="translate(5.911 5.403)"><g transform="translate(0 0)"><g transform="translate(11.896 6.55)"><path d="M214.39,109.3a.305.305,0,0,1-.213-.089.3.3,0,1,1,.213.089Z" transform="translate(-214.089 -108.7)"/></g><path d="M39.457,9.62l-3.077-6.1c-.1-.347-.505-.894-2.509-1.714-.895-.366-1.753-.64-2.054-.733A3.528,3.528,0,0,0,30.7.046h0A.3.3,0,0,0,30.536,0h-4.92a.294.294,0,0,0-.158.046h0a3.527,3.527,0,0,0-1.122,1.032c-.3.093-1.16.367-2.054.733-2,.819-2.4,1.367-2.508,1.714l-3.077,6.1a.3.3,0,0,0,.138.407l4.388,2.127V24.208a.3.3,0,0,0,.2.284c.1.035,1.124.343,6.655.343h0c5.531,0,6.556-.308,6.655-.343a.3.3,0,0,0,.2-.284V12.154l4.388-2.127a.3.3,0,0,0,.138-.407ZM36.114,4.334l2.22,4.4-3.4,1.664V8.922A13.391,13.391,0,0,1,36.114,4.334ZM30.686.768A1.7,1.7,0,0,1,31.532,2.4c-.088.671-.47,2.239-.634,2.894l-1.7-.453Zm-2.158,4.14-.452.658-.452-.657L26.373,1.492h3.406ZM30.105.6,30,.89H26.153L26.047.6ZM25.466.768,26.958,4.84l-1.7.453c-.163-.654-.545-2.222-.634-2.894A1.7,1.7,0,0,1,25.466.768ZM21.22,11.484l-3.85-1.866.176-.348,3.674,1.8Zm0-1.088-3.4-1.664,2.22-4.4A13.38,13.38,0,0,1,21.22,8.922ZM34.329,8.922V23.966a42.968,42.968,0,0,1-6.253.267,42.966,42.966,0,0,1-6.253-.267V8.922a14.814,14.814,0,0,0-1.441-5.3c.291-.5,1.979-1.27,3.657-1.82a2.111,2.111,0,0,0-.016.675c.117.89.7,3.163.721,3.259a.3.3,0,0,0,.139.185.315.315,0,0,0,.23.031l2.112-.561.548.8V8.655a.3.3,0,1,0,.6,0V6.191l.549-.8,2.112.561a.3.3,0,0,0,.23-.031.306.306,0,0,0,.139-.185c.025-.1.6-2.369.721-3.259a2.109,2.109,0,0,0-.016-.675c1.677.55,3.366,1.321,3.657,1.821A14.81,14.81,0,0,0,34.329,8.922Zm.6,2.562v-.417l3.674-1.8.176.348Z" transform="translate(-16.663)"/></g></g></g></svg>